  0
SECTION
  2
HEADER
  9
$ACADVER
  1
AC1009
  9
$EXTMIN
 10
0.0
 20
0.0
 30
0.0
  9
$EXTMAX
 10
1000.0
 20
1000.0
 30
0.0
  9
$FILLMODE
 70
 0
  9
$SPLFRAME
 70
 1
  0
ENDSEC
  0
SECTION
  2
TABLES
  0
TABLE
  2
LAYER
 70
1
  0
LAYER
  2
0
 70
     0
 62
     7
  6
CONTINUOUS
  0
ENDTAB
  0
ENDSEC
  0
SECTION
  2
ENTITIES
  0
LINE
  8
0
 62
     0
 10
73.7969
 20
114.558
 30
0.0
 11
73.9923
 21
114.551
 31
0.0
  0
LINE
  8
0
 62
     0
 10
73.9923
 20
114.551
 30
0.0
 11
74.1881
 21
114.528
 31
0.0
  0
LINE
  8
0
 62
     0
 10
74.1881
 20
114.528
 30
0.0
 11
74.3797
 21
114.489
 31
0.0
  0
LINE
  8
0
 62
     0
 10
74.3797
 20
114.489
 30
0.0
 11
74.5684
 21
114.435
 31
0.0
  0
LINE
  8
0
 62
     0
 10
74.5684
 20
114.435
 30
0.0
 11
74.7529
 21
114.367
 31
0.0
  0
LINE
  8
0
 62
     0
 10
74.7529
 20
114.367
 30
0.0
 11
74.9307
 21
114.285
 31
0.0
  0
LINE
  8
0
 62
     0
 10
74.9307
 20
114.285
 30
0.0
 11
75.1032
 21
114.19
 31
0.0
  0
LINE
  8
0
 62
     0
 10
75.1032
 20
114.19
 30
0.0
 11
75.2658
 21
114.081
 31
0.0
  0
LINE
  8
0
 62
     0
 10
75.2658
 20
114.081
 30
0.0
 11
75.42
 21
113.96
 31
0.0
  0
LINE
  8
0
 62
     0
 10
75.42
 20
113.96
 30
0.0
 11
75.5632
 21
113.826
 31
0.0
  0
LINE
  8
0
 62
     0
 10
75.5632
 20
113.826
 30
0.0
 11
75.6969
 21
113.681
 31
0.0
  0
LINE
  8
0
 62
     0
 10
75.6969
 20
113.681
 30
0.0
 11
75.8183
 21
113.527
 31
0.0
  0
LINE
  8
0
 62
     0
 10
75.8183
 20
113.527
 30
0.0
 11
75.9273
 21
113.364
 31
0.0
  0
LINE
  8
0
 62
     0
 10
75.9273
 20
113.364
 30
0.0
 11
76.0236
 21
113.192
 31
0.0
  0
LINE
  8
0
 62
     0
 10
76.0236
 20
113.192
 30
0.0
 11
76.1047
 21
113.014
 31
0.0
  0
LINE
  8
0
 62
     0
 10
76.1047
 20
113.014
 30
0.0
 11
76.1739
 21
112.83
 31
0.0
  0
LINE
  8
0
 62
     0
 10
76.1739
 20
112.83
 30
0.0
 11
76.2261
 21
112.641
 31
0.0
  0
LINE
  8
0
 62
     0
 10
76.2261
 20
112.641
 30
0.0
 11
76.2663
 21
112.449
 31
0.0
  0
LINE
  8
0
 62
     0
 10
76.2663
 20
112.449
 30
0.0
 11
76.2882
 21
112.254
 31
0.0
  0
LINE
  8
0
 62
     0
 10
76.2882
 20
112.254
 30
0.0
 11
76.2963
 21
112.058
 31
0.0
  0
LINE
  8
0
 62
     0
 10
76.2963
 20
112.058
 30
0.0
 11
76.2963
 21
2.75608
 31
0.0
  0
LINE
  8
0
 62
     0
 10
76.2963
 20
2.75608
 30
0.0
 11
76.2882
 21
2.56039
 31
0.0
  0
LINE
  8
0
 62
     0
 10
76.2882
 20
2.56039
 30
0.0
 11
76.2663
 21
2.36472
 31
0.0
  0
LINE
  8
0
 62
     0
 10
76.2663
 20
2.36472
 30
0.0
 11
76.2261
 21
2.17317
 31
0.0
  0
LINE
  8
0
 62
     0
 10
76.2261
 20
2.17317
 30
0.0
 11
76.1739
 21
1.98438
 31
0.0
  0
LINE
  8
0
 62
     0
 10
76.1739
 20
1.98438
 30
0.0
 11
76.1047
 21
1.79972
 31
0.0
  0
LINE
  8
0
 62
     0
 10
76.1047
 20
1.79972
 30
0.0
 11
76.0236
 21
1.62195
 31
0.0
  0
LINE
  8
0
 62
     0
 10
76.0236
 20
1.62195
 30
0.0
 11
75.9273
 21
1.4497
 31
0.0
  0
LINE
  8
0
 62
     0
 10
75.9273
 20
1.4497
 30
0.0
 11
75.8183
 21
1.28709
 31
0.0
  0
LINE
  8
0
 62
     0
 10
75.8183
 20
1.28709
 30
0.0
 11
75.6969
 21
1.13275
 31
0.0
  0
LINE
  8
0
 62
     0
 10
75.6969
 20
1.13275
 30
0.0
 11
75.5632
 21
0.989432
 31
0.0
  0
LINE
  8
0
 62
     0
 10
75.5632
 20
0.989432
 30
0.0
 11
75.42
 21
0.855761
 31
0.0
  0
LINE
  8
0
 62
     0
 10
75.42
 20
0.855761
 30
0.0
 11
75.2658
 21
0.734494
 31
0.0
  0
LINE
  8
0
 62
     0
 10
75.2658
 20
0.734494
 30
0.0
 11
75.1032
 21
0.62563
 31
0.0
  0
LINE
  8
0
 62
     0
 10
75.1032
 20
0.62563
 30
0.0
 11
74.9307
 21
0.529167
 31
0.0
  0
LINE
  8
0
 62
     0
 10
74.9307
 20
0.529167
 30
0.0
 11
74.7529
 21
0.447862
 31
0.0
  0
LINE
  8
0
 62
     0
 10
74.7529
 20
0.447862
 30
0.0
 11
74.5684
 21
0.378961
 31
0.0
  0
LINE
  8
0
 62
     0
 10
74.5684
 20
0.378961
 30
0.0
 11
74.3797
 21
0.326595
 31
0.0
  0
LINE
  8
0
 62
     0
 10
74.3797
 20
0.326595
 30
0.0
 11
74.1881
 21
0.286632
 31
0.0
  0
LINE
  8
0
 62
     0
 10
74.1881
 20
0.286632
 30
0.0
 11
73.9923
 21
0.264583
 31
0.0
  0
LINE
  8
0
 62
     0
 10
73.9923
 20
0.264583
 30
0.0
 11
73.7969
 21
0.256315
 31
0.0
  0
LINE
  8
0
 62
     0
 10
73.7969
 20
0.256315
 30
0.0
 11
2.59485
 21
0.256315
 31
0.0
  0
LINE
  8
0
 62
     0
 10
2.59485
 20
0.256315
 30
0.0
 11
2.39916
 21
0.264583
 31
0.0
  0
LINE
  8
0
 62
     0
 10
2.39916
 20
0.264583
 30
0.0
 11
2.20348
 21
0.286632
 31
0.0
  0
LINE
  8
0
 62
     0
 10
2.20348
 20
0.286632
 30
0.0
 11
2.01194
 21
0.326595
 31
0.0
  0
LINE
  8
0
 62
     0
 10
2.01194
 20
0.326595
 30
0.0
 11
1.82315
 21
0.378961
 31
0.0
  0
LINE
  8
0
 62
     0
 10
1.82315
 20
0.378961
 30
0.0
 11
1.63849
 21
0.447862
 31
0.0
  0
LINE
  8
0
 62
     0
 10
1.63849
 20
0.447862
 30
0.0
 11
1.46072
 21
0.529167
 31
0.0
  0
LINE
  8
0
 62
     0
 10
1.46072
 20
0.529167
 30
0.0
 11
1.28846
 21
0.62563
 31
0.0
  0
LINE
  8
0
 62
     0
 10
1.28846
 20
0.62563
 30
0.0
 11
1.12586
 21
0.734494
 31
0.0
  0
LINE
  8
0
 62
     0
 10
1.12586
 20
0.734494
 30
0.0
 11
0.971518
 21
0.855761
 31
0.0
  0
LINE
  8
0
 62
     0
 10
0.971518
 20
0.855761
 30
0.0
 11
0.826823
 21
0.989432
 31
0.0
  0
LINE
  8
0
 62
     0
 10
0.826823
 20
0.989432
 30
0.0
 11
0.693152
 21
1.13275
 31
0.0
  0
LINE
  8
0
 62
     0
 10
0.693152
 20
1.13275
 30
0.0
 11
0.571885
 21
1.28709
 31
0.0
  0
LINE
  8
0
 62
     0
 10
0.571885
 20
1.28709
 30
0.0
 11
0.463021
 21
1.4497
 31
0.0
  0
LINE
  8
0
 62
     0
 10
0.463021
 20
1.4497
 30
0.0
 11
0.367937
 21
1.62195
 31
0.0
  0
LINE
  8
0
 62
     0
 10
0.367937
 20
1.62195
 30
0.0
 11
0.285254
 21
1.79972
 31
0.0
  0
LINE
  8
0
 62
     0
 10
0.285254
 20
1.79972
 30
0.0
 11
0.21773
 21
1.98438
 31
0.0
  0
LINE
  8
0
 62
     0
 10
0.21773
 20
1.98438
 30
0.0
 11
0.163987
 21
2.17317
 31
0.0
  0
LINE
  8
0
 62
     0
 10
0.163987
 20
2.17317
 30
0.0
 11
0.125402
 21
2.36472
 31
0.0
  0
LINE
  8
0
 62
     0
 10
0.125402
 20
2.36472
 30
0.0
 11
0.101975
 21
2.56039
 31
0.0
  0
LINE
  8
0
 62
     0
 10
0.101975
 20
2.56039
 30
0.0
 11
0.0950846
 21
2.75746
 31
0.0
  0
LINE
  8
0
 62
     0
 10
0.0950846
 20
2.75746
 30
0.0
 11
0.0950846
 21
112.058
 31
0.0
  0
LINE
  8
0
 62
     0
 10
0.0950846
 20
112.058
 30
0.0
 11
0.101975
 21
112.254
 31
0.0
  0
LINE
  8
0
 62
     0
 10
0.101975
 20
112.254
 30
0.0
 11
0.125402
 21
112.449
 31
0.0
  0
LINE
  8
0
 62
     0
 10
0.125402
 20
112.449
 30
0.0
 11
0.163987
 21
112.641
 31
0.0
  0
LINE
  8
0
 62
     0
 10
0.163987
 20
112.641
 30
0.0
 11
0.21773
 21
112.83
 31
0.0
  0
LINE
  8
0
 62
     0
 10
0.21773
 20
112.83
 30
0.0
 11
0.285254
 21
113.014
 31
0.0
  0
LINE
  8
0
 62
     0
 10
0.285254
 20
113.014
 30
0.0
 11
0.367937
 21
113.192
 31
0.0
  0
LINE
  8
0
 62
     0
 10
0.367937
 20
113.192
 30
0.0
 11
0.463021
 21
113.364
 31
0.0
  0
LINE
  8
0
 62
     0
 10
0.463021
 20
113.364
 30
0.0
 11
0.571885
 21
113.527
 31
0.0
  0
LINE
  8
0
 62
     0
 10
0.571885
 20
113.527
 30
0.0
 11
0.693152
 21
113.681
 31
0.0
  0
LINE
  8
0
 62
     0
 10
0.693152
 20
113.681
 30
0.0
 11
0.826823
 21
113.826
 31
0.0
  0
LINE
  8
0
 62
     0
 10
0.826823
 20
113.826
 30
0.0
 11
0.971518
 21
113.96
 31
0.0
  0
LINE
  8
0
 62
     0
 10
0.971518
 20
113.96
 30
0.0
 11
1.12586
 21
114.081
 31
0.0
  0
LINE
  8
0
 62
     0
 10
1.12586
 20
114.081
 30
0.0
 11
1.28846
 21
114.19
 31
0.0
  0
LINE
  8
0
 62
     0
 10
1.28846
 20
114.19
 30
0.0
 11
1.46072
 21
114.285
 31
0.0
  0
LINE
  8
0
 62
     0
 10
1.46072
 20
114.285
 30
0.0
 11
1.63849
 21
114.367
 31
0.0
  0
LINE
  8
0
 62
     0
 10
1.63849
 20
114.367
 30
0.0
 11
1.82315
 21
114.435
 31
0.0
  0
LINE
  8
0
 62
     0
 10
1.82315
 20
114.435
 30
0.0
 11
2.01194
 21
114.489
 31
0.0
  0
LINE
  8
0
 62
     0
 10
2.01194
 20
114.489
 30
0.0
 11
2.20348
 21
114.528
 31
0.0
  0
LINE
  8
0
 62
     0
 10
2.20348
 20
114.528
 30
0.0
 11
2.39916
 21
114.551
 31
0.0
  0
LINE
  8
0
 62
     0
 10
2.39916
 20
114.551
 30
0.0
 11
2.59485
 21
114.558
 31
0.0
  0
LINE
  8
0
 62
     0
 10
2.59485
 20
114.558
 30
0.0
 11
73.7969
 21
114.558
 31
0.0
  0
LINE
  8
0
 62
     0
 10
12.146
 20
16.7817
 30
0.0
 11
12.146
 21
12.0826
 31
0.0
  0
LINE
  8
0
 62
     0
 10
12.146
 20
12.0826
 30
0.0
 11
10.6206
 21
12.0826
 31
0.0
  0
LINE
  8
0
 62
     0
 10
10.6206
 20
12.0826
 30
0.0
 11
10.6206
 21
15.3128
 31
0.0
  0
LINE
  8
0
 62
     0
 10
10.6206
 20
15.3128
 30
0.0
 11
3.87092
 21
15.3128
 31
0.0
  0
LINE
  8
0
 62
     0
 10
3.87092
 20
15.3128
 30
0.0
 11
3.87092
 21
12.0826
 31
0.0
  0
LINE
  8
0
 62
     0
 10
3.87092
 20
12.0826
 30
0.0
 11
3.04409
 21
12.0826
 31
0.0
  0
LINE
  8
0
 62
     0
 10
3.04409
 20
12.0826
 30
0.0
 11
3.04409
 21
9.28247
 31
0.0
  0
LINE
  8
0
 62
     0
 10
3.04409
 20
9.28247
 30
0.0
 11
3.87092
 21
9.28247
 31
0.0
  0
LINE
  8
0
 62
     0
 10
3.87092
 20
9.28247
 30
0.0
 11
3.87092
 21
3.01239
 31
0.0
  0
LINE
  8
0
 62
     0
 10
3.87092
 20
3.01239
 30
0.0
 11
5.59484
 21
3.01239
 31
0.0
  0
LINE
  8
0
 62
     0
 10
5.59484
 20
3.01239
 30
0.0
 11
5.59484
 21
1.81212
 31
0.0
  0
LINE
  8
0
 62
     0
 10
5.59484
 20
1.81212
 30
0.0
 11
8.89522
 21
1.81212
 31
0.0
  0
LINE
  8
0
 62
     0
 10
8.89522
 20
1.81212
 30
0.0
 11
8.89522
 21
3.01239
 31
0.0
  0
LINE
  8
0
 62
     0
 10
8.89522
 20
3.01239
 30
0.0
 11
10.6206
 21
3.01239
 31
0.0
  0
LINE
  8
0
 62
     0
 10
10.6206
 20
3.01239
 30
0.0
 11
10.6206
 21
7.48273
 31
0.0
  0
LINE
  8
0
 62
     0
 10
10.6206
 20
7.48273
 30
0.0
 11
12.146
 21
7.48273
 31
0.0
  0
LINE
  8
0
 62
     0
 10
12.146
 20
7.48273
 30
0.0
 11
12.146
 21
2.78226
 31
0.0
  0
LINE
  8
0
 62
     0
 10
12.146
 20
2.78226
 30
0.0
 11
26.1455
 21
2.78226
 31
0.0
  0
LINE
  8
0
 62
     0
 10
26.1455
 20
2.78226
 30
0.0
 11
26.1455
 21
7.48273
 31
0.0
  0
LINE
  8
0
 62
     0
 10
26.1455
 20
7.48273
 30
0.0
 11
27.671
 21
7.48273
 31
0.0
  0
LINE
  8
0
 62
     0
 10
27.671
 20
7.48273
 30
0.0
 11
27.671
 21
3.01239
 31
0.0
  0
LINE
  8
0
 62
     0
 10
27.671
 20
3.01239
 30
0.0
 11
29.3949
 21
3.01239
 31
0.0
  0
LINE
  8
0
 62
     0
 10
29.3949
 20
3.01239
 30
0.0
 11
29.3949
 21
1.81212
 31
0.0
  0
LINE
  8
0
 62
     0
 10
29.3949
 20
1.81212
 30
0.0
 11
32.6953
 21
1.81212
 31
0.0
  0
LINE
  8
0
 62
     0
 10
32.6953
 20
1.81212
 30
0.0
 11
32.6953
 21
3.01239
 31
0.0
  0
LINE
  8
0
 62
     0
 10
32.6953
 20
3.01239
 30
0.0
 11
34.4206
 21
3.01239
 31
0.0
  0
LINE
  8
0
 62
     0
 10
34.4206
 20
3.01239
 30
0.0
 11
34.4206
 21
9.28247
 31
0.0
  0
LINE
  8
0
 62
     0
 10
34.4206
 20
9.28247
 30
0.0
 11
35.2461
 21
9.28247
 31
0.0
  0
LINE
  8
0
 62
     0
 10
35.2461
 20
9.28247
 30
0.0
 11
35.2461
 21
12.0826
 31
0.0
  0
LINE
  8
0
 62
     0
 10
35.2461
 20
12.0826
 30
0.0
 11
34.4206
 21
12.0826
 31
0.0
  0
LINE
  8
0
 62
     0
 10
34.4206
 20
12.0826
 30
0.0
 11
34.4206
 21
15.3128
 31
0.0
  0
LINE
  8
0
 62
     0
 10
34.4206
 20
15.3128
 30
0.0
 11
27.671
 21
15.3128
 31
0.0
  0
LINE
  8
0
 62
     0
 10
27.671
 20
15.3128
 30
0.0
 11
27.671
 21
12.0826
 31
0.0
  0
LINE
  8
0
 62
     0
 10
27.671
 20
12.0826
 30
0.0
 11
26.1455
 21
12.0826
 31
0.0
  0
LINE
  8
0
 62
     0
 10
26.1455
 20
12.0826
 30
0.0
 11
26.1455
 21
16.7817
 31
0.0
  0
LINE
  8
0
 62
     0
 10
26.1455
 20
16.7817
 30
0.0
 11
12.146
 21
16.7817
 31
0.0
  0
LINE
  8
0
 62
     0
 10
40.7211
 20
16.7817
 30
0.0
 11
54.7204
 21
16.7817
 31
0.0
  0
LINE
  8
0
 62
     0
 10
54.7204
 20
16.7817
 30
0.0
 11
54.7204
 21
2.78226
 31
0.0
  0
LINE
  8
0
 62
     0
 10
54.7204
 20
2.78226
 30
0.0
 11
40.7211
 21
2.78226
 31
0.0
  0
LINE
  8
0
 62
     0
 10
40.7211
 20
2.78226
 30
0.0
 11
40.7211
 21
16.7817
 31
0.0
  0
LINE
  8
0
 62
     0
 10
59.7711
 20
21.5456
 30
0.0
 11
73.7704
 21
21.5456
 31
0.0
  0
LINE
  8
0
 62
     0
 10
73.7704
 20
21.5456
 30
0.0
 11
73.7704
 21
7.54475
 31
0.0
  0
LINE
  8
0
 62
     0
 10
73.7704
 20
7.54475
 30
0.0
 11
59.7711
 21
7.54475
 31
0.0
  0
LINE
  8
0
 62
     0
 10
59.7711
 20
7.54475
 30
0.0
 11
59.7711
 21
21.5456
 31
0.0
  0
LINE
  8
0
 62
     0
 10
40.7211
 20
35.8316
 30
0.0
 11
54.7204
 21
35.8316
 31
0.0
  0
LINE
  8
0
 62
     0
 10
54.7204
 20
35.8316
 30
0.0
 11
54.7204
 21
21.8323
 31
0.0
  0
LINE
  8
0
 62
     0
 10
54.7204
 20
21.8323
 30
0.0
 11
40.7211
 21
21.8323
 31
0.0
  0
LINE
  8
0
 62
     0
 10
40.7211
 20
21.8323
 30
0.0
 11
40.7211
 21
35.8316
 31
0.0
  0
LINE
  8
0
 62
     0
 10
21.671
 20
35.8316
 30
0.0
 11
35.6704
 21
35.8316
 31
0.0
  0
LINE
  8
0
 62
     0
 10
35.6704
 20
35.8316
 30
0.0
 11
35.6704
 21
21.8323
 31
0.0
  0
LINE
  8
0
 62
     0
 10
35.6704
 20
21.8323
 30
0.0
 11
21.671
 21
21.8323
 31
0.0
  0
LINE
  8
0
 62
     0
 10
21.671
 20
21.8323
 30
0.0
 11
21.671
 21
35.8316
 31
0.0
  0
LINE
  8
0
 62
     0
 10
2.62103
 20
35.8316
 30
0.0
 11
16.6205
 21
35.8316
 31
0.0
  0
LINE
  8
0
 62
     0
 10
16.6205
 20
35.8316
 30
0.0
 11
16.6205
 21
21.8323
 31
0.0
  0
LINE
  8
0
 62
     0
 10
16.6205
 20
21.8323
 30
0.0
 11
2.62103
 21
21.8323
 31
0.0
  0
LINE
  8
0
 62
     0
 10
2.62103
 20
21.8323
 30
0.0
 11
2.62103
 21
35.8316
 31
0.0
  0
LINE
  8
0
 62
     0
 10
59.7711
 20
50.1206
 30
0.0
 11
73.7704
 21
50.1206
 31
0.0
  0
LINE
  8
0
 62
     0
 10
73.7704
 20
50.1206
 30
0.0
 11
73.7704
 21
36.1199
 31
0.0
  0
LINE
  8
0
 62
     0
 10
73.7704
 20
36.1199
 30
0.0
 11
59.7711
 21
36.1199
 31
0.0
  0
LINE
  8
0
 62
     0
 10
59.7711
 20
36.1199
 30
0.0
 11
59.7711
 21
50.1206
 31
0.0
  0
LINE
  8
0
 62
     0
 10
40.7211
 20
54.8816
 30
0.0
 11
54.7204
 21
54.8816
 31
0.0
  0
LINE
  8
0
 62
     0
 10
54.7204
 20
54.8816
 30
0.0
 11
54.7204
 21
40.8824
 31
0.0
  0
LINE
  8
0
 62
     0
 10
54.7204
 20
40.8824
 30
0.0
 11
40.7211
 21
40.8824
 31
0.0
  0
LINE
  8
0
 62
     0
 10
40.7211
 20
40.8824
 30
0.0
 11
40.7211
 21
54.8816
 31
0.0
  0
LINE
  8
0
 62
     0
 10
21.671
 20
54.8816
 30
0.0
 11
35.6704
 21
54.8816
 31
0.0
  0
LINE
  8
0
 62
     0
 10
35.6704
 20
54.8816
 30
0.0
 11
35.6704
 21
40.8824
 31
0.0
  0
LINE
  8
0
 62
     0
 10
35.6704
 20
40.8824
 30
0.0
 11
21.671
 21
40.8824
 31
0.0
  0
LINE
  8
0
 62
     0
 10
21.671
 20
40.8824
 30
0.0
 11
21.671
 21
54.8816
 31
0.0
  0
LINE
  8
0
 62
     0
 10
2.62103
 20
54.8816
 30
0.0
 11
16.6205
 21
54.8816
 31
0.0
  0
LINE
  8
0
 62
     0
 10
16.6205
 20
54.8816
 30
0.0
 11
16.6205
 21
40.8824
 31
0.0
  0
LINE
  8
0
 62
     0
 10
16.6205
 20
40.8824
 30
0.0
 11
2.62103
 21
40.8824
 31
0.0
  0
LINE
  8
0
 62
     0
 10
2.62103
 20
40.8824
 30
0.0
 11
2.62103
 21
54.8816
 31
0.0
  0
LINE
  8
0
 62
     0
 10
59.7711
 20
73.9316
 30
0.0
 11
73.7704
 21
73.9316
 31
0.0
  0
LINE
  8
0
 62
     0
 10
73.7704
 20
73.9316
 30
0.0
 11
73.7704
 21
59.9324
 31
0.0
  0
LINE
  8
0
 62
     0
 10
73.7704
 20
59.9324
 30
0.0
 11
59.7711
 21
59.9324
 31
0.0
  0
LINE
  8
0
 62
     0
 10
59.7711
 20
59.9324
 30
0.0
 11
59.7711
 21
73.9316
 31
0.0
  0
LINE
  8
0
 62
     0
 10
40.7211
 20
73.9316
 30
0.0
 11
54.7204
 21
73.9316
 31
0.0
  0
LINE
  8
0
 62
     0
 10
54.7204
 20
73.9316
 30
0.0
 11
54.7204
 21
59.9324
 31
0.0
  0
LINE
  8
0
 62
     0
 10
54.7204
 20
59.9324
 30
0.0
 11
40.7211
 21
59.9324
 31
0.0
  0
LINE
  8
0
 62
     0
 10
40.7211
 20
59.9324
 30
0.0
 11
40.7211
 21
73.9316
 31
0.0
  0
LINE
  8
0
 62
     0
 10
21.671
 20
73.9316
 30
0.0
 11
35.6704
 21
73.9316
 31
0.0
  0
LINE
  8
0
 62
     0
 10
35.6704
 20
73.9316
 30
0.0
 11
35.6704
 21
59.9324
 31
0.0
  0
LINE
  8
0
 62
     0
 10
35.6704
 20
59.9324
 30
0.0
 11
21.671
 21
59.9324
 31
0.0
  0
LINE
  8
0
 62
     0
 10
21.671
 20
59.9324
 30
0.0
 11
21.671
 21
73.9316
 31
0.0
  0
LINE
  8
0
 62
     0
 10
2.62103
 20
73.9316
 30
0.0
 11
16.6205
 21
73.9316
 31
0.0
  0
LINE
  8
0
 62
     0
 10
16.6205
 20
73.9316
 30
0.0
 11
16.6205
 21
59.9324
 31
0.0
  0
LINE
  8
0
 62
     0
 10
16.6205
 20
59.9324
 30
0.0
 11
2.62103
 21
59.9324
 31
0.0
  0
LINE
  8
0
 62
     0
 10
2.62103
 20
59.9324
 30
0.0
 11
2.62103
 21
73.9316
 31
0.0
  0
LINE
  8
0
 62
     0
 10
59.7711
 20
92.9816
 30
0.0
 11
73.7704
 21
92.9816
 31
0.0
  0
LINE
  8
0
 62
     0
 10
73.7704
 20
92.9816
 30
0.0
 11
73.7704
 21
78.9824
 31
0.0
  0
LINE
  8
0
 62
     0
 10
73.7704
 20
78.9824
 30
0.0
 11
59.7711
 21
78.9824
 31
0.0
  0
LINE
  8
0
 62
     0
 10
59.7711
 20
78.9824
 30
0.0
 11
59.7711
 21
92.9816
 31
0.0
  0
LINE
  8
0
 62
     0
 10
40.7211
 20
92.9816
 30
0.0
 11
54.7204
 21
92.9816
 31
0.0
  0
LINE
  8
0
 62
     0
 10
54.7204
 20
92.9816
 30
0.0
 11
54.7204
 21
78.9824
 31
0.0
  0
LINE
  8
0
 62
     0
 10
54.7204
 20
78.9824
 30
0.0
 11
40.7211
 21
78.9824
 31
0.0
  0
LINE
  8
0
 62
     0
 10
40.7211
 20
78.9824
 30
0.0
 11
40.7211
 21
92.9816
 31
0.0
  0
LINE
  8
0
 62
     0
 10
21.671
 20
92.9816
 30
0.0
 11
35.6704
 21
92.9816
 31
0.0
  0
LINE
  8
0
 62
     0
 10
35.6704
 20
92.9816
 30
0.0
 11
35.6704
 21
78.9824
 31
0.0
  0
LINE
  8
0
 62
     0
 10
35.6704
 20
78.9824
 30
0.0
 11
21.671
 21
78.9824
 31
0.0
  0
LINE
  8
0
 62
     0
 10
21.671
 20
78.9824
 30
0.0
 11
21.671
 21
92.9816
 31
0.0
  0
LINE
  8
0
 62
     0
 10
2.62103
 20
92.9816
 30
0.0
 11
16.6205
 21
92.9816
 31
0.0
  0
LINE
  8
0
 62
     0
 10
16.6205
 20
92.9816
 30
0.0
 11
16.6205
 21
78.9824
 31
0.0
  0
LINE
  8
0
 62
     0
 10
16.6205
 20
78.9824
 30
0.0
 11
2.62103
 21
78.9824
 31
0.0
  0
LINE
  8
0
 62
     0
 10
2.62103
 20
78.9824
 30
0.0
 11
2.62103
 21
92.9816
 31
0.0
  0
LINE
  8
0
 62
     0
 10
59.7711
 20
112.032
 30
0.0
 11
73.7704
 21
112.032
 31
0.0
  0
LINE
  8
0
 62
     0
 10
73.7704
 20
112.032
 30
0.0
 11
73.7704
 21
98.0324
 31
0.0
  0
LINE
  8
0
 62
     0
 10
73.7704
 20
98.0324
 30
0.0
 11
59.7711
 21
98.0324
 31
0.0
  0
LINE
  8
0
 62
     0
 10
59.7711
 20
98.0324
 30
0.0
 11
59.7711
 21
112.032
 31
0.0
  0
LINE
  8
0
 62
     0
 10
40.7211
 20
112.032
 30
0.0
 11
54.7204
 21
112.032
 31
0.0
  0
LINE
  8
0
 62
     0
 10
54.7204
 20
112.032
 30
0.0
 11
54.7204
 21
98.0324
 31
0.0
  0
LINE
  8
0
 62
     0
 10
54.7204
 20
98.0324
 30
0.0
 11
40.7211
 21
98.0324
 31
0.0
  0
LINE
  8
0
 62
     0
 10
40.7211
 20
98.0324
 30
0.0
 11
40.7211
 21
112.032
 31
0.0
  0
LINE
  8
0
 62
     0
 10
21.671
 20
112.032
 30
0.0
 11
35.6704
 21
112.032
 31
0.0
  0
LINE
  8
0
 62
     0
 10
35.6704
 20
112.032
 30
0.0
 11
35.6704
 21
98.0324
 31
0.0
  0
LINE
  8
0
 62
     0
 10
35.6704
 20
98.0324
 30
0.0
 11
21.671
 21
98.0324
 31
0.0
  0
LINE
  8
0
 62
     0
 10
21.671
 20
98.0324
 30
0.0
 11
21.671
 21
112.032
 31
0.0
  0
LINE
  8
0
 62
     0
 10
2.62103
 20
112.032
 30
0.0
 11
16.6205
 21
112.032
 31
0.0
  0
LINE
  8
0
 62
     0
 10
16.6205
 20
112.032
 30
0.0
 11
16.6205
 21
98.0324
 31
0.0
  0
LINE
  8
0
 62
     0
 10
16.6205
 20
98.0324
 30
0.0
 11
2.62103
 21
98.0324
 31
0.0
  0
LINE
  8
0
 62
     0
 10
2.62103
 20
98.0324
 30
0.0
 11
2.62103
 21
112.032
 31
0.0
  0
ENDSEC
  0
EOF
